<?xml version="1.0" encoding="UTF-8"?>
<!DOCTYPE svg PUBLIC "-//W3C//DTD SVG 1.1//EN" "http://www.w3.org/Graphics/SVG/1.1/DTD/svg11.dtd">
<svg xmlns="http://www.w3.org/2000/svg" version="1.1" width="360px" height="360px" style="shape-rendering:geometricPrecision; text-rendering:geometricPrecision; image-rendering:optimizeQuality; fill-rule:evenodd; clip-rule:evenodd" xmlns:xlink="http://www.w3.org/1999/xlink">
<g><path style="opacity:0.981" fill="#000000" d="M 131.5,66.5 C 146.395,67.0587 155.062,74.7254 157.5,89.5C 157.074,94.205 155.574,98.5383 153,102.5C 135.167,120.333 117.333,138.167 99.5,156C 172.167,156.333 244.833,156.667 317.5,157C 334.472,161.775 340.306,172.609 335,189.5C 331.14,196.35 325.307,200.517 317.5,202C 244.833,202.333 172.167,202.667 99.5,203C 117.333,220.833 135.167,238.667 153,256.5C 160.279,270.216 157.446,281.383 144.5,290C 137.833,293.333 131.167,293.333 124.5,290C 91.0278,257.528 57.8611,224.695 25,191.5C 20.2205,182.958 20.5539,174.625 26,166.5C 57.8333,134.667 89.6667,102.833 121.5,71C 124.703,68.9971 128.036,67.4971 131.5,66.5 Z"/></g>
</svg>
