<svg version="1.1" id="Layer_1" xmlns="http://www.w3.org/2000/svg" xmlns:xlink="http://www.w3.org/1999/xlink" x="0px" y="0px"
	 width="100%" viewBox="0 0 496 496" enable-background="new 0 0 496 496" xml:space="preserve">
<path fill="#000000" opacity="1.000000" stroke="none" 
	d="
M309.569214,349.841797 
	C300.195404,352.690674 290.929199,353.875732 281.601715,353.989380 
	C261.943909,354.228912 242.280914,354.192261 222.621307,354.068726 
	C213.121811,354.009033 203.590225,353.413788 194.464859,350.553040 
	C174.594040,344.323792 163.139206,330.675995 159.707916,310.186615 
	C158.356659,302.117828 157.764725,294.007324 157.891159,285.825134 
	C158.238495,263.346710 157.069977,240.846588 158.696686,218.387848 
	C160.447250,194.219131 173.143402,177.805862 194.060211,171.387268 
	C203.704544,168.427811 213.749191,168.008194 223.699585,168.049011 
	C246.848892,168.143936 270.029968,167.039703 293.144135,168.783173 
	C319.520844,170.772690 339.595764,185.234726 343.338684,217.434555 
	C344.615601,228.419388 344.227203,239.401855 344.115295,250.376343 
	C343.930267,268.519135 345.189362,286.690125 343.261383,304.804688 
	C340.972412,326.311066 331.020844,342.135956 309.569214,349.841797 
M175.392853,285.492859 
	C175.271286,291.823090 175.595551,298.117188 176.282257,304.424255 
	C178.030258,320.479004 187.205383,331.143494 202.894470,334.794067 
	C208.585876,336.118378 214.411667,336.568298 220.238144,336.591949 
	C240.895203,336.675842 261.552948,336.603790 282.209778,336.714203 
	C287.410126,336.742004 292.480194,336.117310 297.544250,335.045013 
	C314.719513,331.408264 324.738586,320.319427 325.662781,302.913971 
	C327.138245,275.126343 327.281464,247.308746 325.732574,219.519943 
	C324.642883,199.969025 313.241577,188.541550 293.756470,186.174500 
	C282.779968,184.841049 271.798004,185.442795 260.826965,185.453674 
	C243.349533,185.470993 225.837952,184.429993 208.398941,186.327118 
	C197.145218,187.551376 187.327896,191.680756 181.483490,202.040756 
	C177.677826,208.786880 176.091415,216.247192 176.030060,224.043900 
	C175.871445,244.196381 175.612534,264.348053 175.392853,285.492859 
z"/>
<path fill="#000000" opacity="1.000000" stroke="none" 
	d="
M313.590454,378.563293 
	C347.306915,359.923309 370.025299,332.859222 379.995300,295.737305 
	C388.199829,265.188934 384.997589,235.429886 372.951050,206.430908 
	C369.566223,198.282791 366.002075,190.208557 362.667206,182.040405 
	C359.267975,173.714600 360.535522,168.218643 366.345245,165.034470 
	C373.684265,161.012131 381.271667,162.716370 385.849091,170.019867 
	C399.087128,191.141739 407.791840,214.031067 411.403320,238.729538 
	C417.309418,279.120850 409.310883,316.733093 386.605621,350.566437 
	C360.193451,389.923401 322.608521,412.674164 276.256470,421.469604 
	C264.200989,423.757172 252.071930,423.307861 239.932541,423.363312 
	C236.227631,423.380249 235.259323,421.838959 236.193924,418.368073 
	C237.836411,412.268158 239.432480,406.145264 240.716995,399.963196 
	C241.544678,395.979767 243.458618,394.550323 247.591690,394.716309 
	C270.977234,395.655426 292.685211,389.458771 313.590454,378.563293 
z"/>
<path fill="#000000" opacity="1.000000" stroke="none" 
	d="
M226.109116,130.237274 
	C219.271652,131.372894 213.059204,133.189362 206.934906,135.335526 
	C205.023392,136.005386 203.109695,136.802460 201.692413,134.420303 
	C197.368927,127.153519 193.016418,119.903999 188.413269,112.209923 
	C195.299652,108.524193 202.272125,106.464020 209.280045,104.627724 
	C238.736664,96.909134 267.844177,97.997375 296.487213,108.538696 
	C303.935272,111.279755 307.610718,117.247917 306.518158,124.307320 
	C305.122131,133.327423 296.615143,138.501862 287.393585,135.441391 
	C272.744202,130.579498 257.849548,127.702225 242.355896,128.323517 
	C237.027634,128.537170 231.771088,129.237534 226.109116,130.237274 
z"/>
<path fill="#000000" opacity="1.000000" stroke="none" 
	d="
M154.742859,391.305450 
	C144.295715,383.050293 134.776993,374.374603 126.557594,363.404144 
	C134.334747,358.721619 141.562012,354.349854 148.813171,350.018097 
	C150.703888,348.888611 152.269958,349.493317 153.646286,351.088409 
	C165.459320,364.778992 179.779953,375.171021 195.947769,383.104706 
	C197.678543,383.954041 198.583191,385.085541 198.096436,387.029999 
	C196.047470,395.214874 193.980209,403.395203 191.759293,412.213776 
	C178.007095,407.159210 166.208359,399.905060 154.742859,391.305450 
z"/>
<path fill="#000000" opacity="1.000000" stroke="none" 
	d="
M115.919479,317.991638 
	C112.609108,319.975281 109.559418,321.689667 106.615295,323.569366 
	C104.362534,325.007721 102.983681,324.522308 102.005119,322.089813 
	C92.744781,299.070526 88.447937,275.227356 90.100067,250.403534 
	C90.208260,248.777878 90.721436,247.179199 91.197517,244.817490 
	C99.885941,246.924530 108.359787,248.928802 116.799561,251.067520 
	C118.564491,251.514755 118.583420,253.068237 118.512749,254.720566 
	C117.750496,272.541565 120.497200,289.840210 126.772224,306.523224 
	C127.985390,309.748627 127.202370,311.442627 124.366829,312.929504 
	C121.571510,314.395294 118.932922,316.159973 115.919479,317.991638 
z"/>
<path fill="#000000" opacity="1.000000" stroke="none" 
	d="
M164.385315,160.047882 
	C160.977829,165.966614 155.613785,169.822678 151.558380,174.879166 
	C144.139435,184.129486 137.109695,193.602097 132.132233,204.414337 
	C130.690109,207.546982 128.990433,208.483841 125.559700,207.471771 
	C119.035789,205.547180 112.402687,203.963409 105.760139,202.484100 
	C102.941658,201.856445 102.043388,200.785477 103.265930,198.035843 
	C113.788757,174.368683 129.192368,154.343338 148.528809,137.246399 
	C148.871964,136.942993 149.426544,136.878677 150.458542,136.480545 
	C155.506210,143.920212 160.341171,151.556747 164.385315,160.047882 
z"/>
<path fill="#000000" opacity="1.000000" stroke="none" 
	d="
M206.009277,244.232880 
	C214.171585,224.505630 229.147339,213.696945 249.559799,213.021469 
	C274.249390,212.204483 293.937561,228.550095 298.072205,252.073822 
	C303.537720,283.169708 281.404968,307.938293 251.917252,308.911407 
	C226.374954,309.754303 206.928391,290.290680 203.712326,268.648712 
	C202.483185,260.377472 203.278931,252.448975 206.009277,244.232880 
M278.611816,274.018066 
	C281.302277,267.425964 282.556915,260.776489 280.705078,253.624573 
	C276.446320,237.176804 261.764465,229.085861 248.235031,230.698288 
	C226.588776,233.278122 219.736084,250.003738 220.510559,263.139679 
	C221.319717,276.863831 231.521393,288.243042 244.030792,290.742676 
	C258.706940,293.675262 271.090912,287.879547 278.611816,274.018066 
z"/>
<path fill="#000000" opacity="1.000000" stroke="none" 
	d="
M306.774689,201.982681 
	C313.353210,208.118317 313.845123,214.010513 308.525085,219.359985 
	C303.858002,224.052872 297.179138,224.151382 292.547333,219.595642 
	C288.673126,215.785080 288.019440,209.343765 291.067169,205.009979 
	C294.531281,200.084076 299.903351,198.952209 306.774689,201.982681 
z"/>
</svg>